<?xml version="1.0" encoding="UTF-8"?>
<svg id="_レイヤー_1" data-name="レイヤー 1" xmlns="http://www.w3.org/2000/svg" viewBox="0 0 175.98 156.41">
  <defs>
    <style>
      .cls-1 {
        fill: #ed7b43;
      }

      .cls-2 {
        fill: #ffffc0;
      }

      .cls-3 {
        fill: #ffde5b;
      }

      .cls-4 {
        fill: #3f210f;
      }

      .cls-5 {
        fill: #ff8935;
      }

      .cls-6 {
        fill: #e7953e;
      }

      .cls-7 {
        fill: #d715d3;
        opacity: .26;
      }
    </style>
  </defs>
  <path class="cls-1" d="M103.57,142.1c-5.29-1.56-7.24-3.14-7.19-5.83.03-1.43-1.12-2.62-2.55-2.64-.02,0-.03,0-.05,0-1.41,0-2.57,1.13-2.59,2.55-.06,3.19,1.26,5.44,3.05,7.06-3.46,1.48-4.91,3.94-5.51,5.69-.47,1.35.25,2.83,1.6,3.3.28.1.57.14.85.14,1.08,0,2.08-.67,2.45-1.75.46-1.33,1.51-2.17,2.83-2.7-1.59,1.71-2.78,3.67-2.55,6.13.13,1.34,1.26,2.35,2.58,2.35.08,0,.17,0,.25-.01,1.43-.14,2.47-1.4,2.34-2.83-.11-1.14,1.86-2.83,3.6-4.33.63-.54,1.26-1.08,1.85-1.63.66-.61.92-1.48.79-2.31.03-.09.06-.18.08-.28.22-1.3-.56-2.55-1.83-2.92Z"/>
  <path class="cls-3" d="M110.99,126.98c-.79-1.03,3.18-3.38,4.4-2.82,13.34,6.03,17.71,6.47,29.7,6.06,13.27-.46,11.68-8.07,18.96-4.52,6.37,3.11,8.64,9.67.67,13.35-9.98,4.61-19.97,6.22-32.7,1.25-6.37-2.49-17.84-9.16-21.04-13.32Z"/>
  <path class="cls-2" d="M69.89,74.26c-10.85,6.11-16.92,14.57-23.05,13.18-3.71-.84-6.71-15.33-2.77-22,.56-.95.99-2.01,1.91-2.57,7.11-4.34,19.74.74,24.52,7.27.92,1.26.79,3.34-.61,4.13Z"/>
  <path class="cls-5" d="M112.33,127.18c-.33-1.23,2.01-7.09,5.46-1.55,5.01,8.06,12.14,12.75,23.96,15.68,13.07,3.24,18.77-3.97,24.34,1.53,4.88,4.82,5.19,10.63-4.09,12.02-11.63,1.75-24.59-.36-34.85-8.77-5.14-4.21-13.47-13.94-14.82-18.91Z"/>
  <path class="cls-5" d="M33.99,51.68c-7.75-.7-19.44-9.98-28.19-3.38C-2.25,54.39-.13,65.91,1.67,70.17c3.7,8.73,18.43,29.53,15.12,19.45-3.43-10.45,25.88-37.15,17.19-37.94Z"/>
  <path class="cls-6" d="M49.95,66.08c-.37.83-.55,1.49-1.08,1.25-.53-.24-.67-1.11-.3-1.94.37-.83,1.1-1.32,1.64-1.08.53.24.11.93-.26,1.77Z"/>
  <path class="cls-6" d="M60.06,68.64c-.43.81-1.39,1.13-2.14.73-.75-.4-.37-.83.06-1.63.43-.81.74-1.69,1.49-1.29.75.4,1.02,1.38.59,2.18Z"/>
  <path class="cls-3" d="M143.79,111.71c4.13-11.21,7.71-21.2,7.9-36.86-.49-8.48-1.6-13.06-4.17-19.72-7.57-19.62-25.12-31.54-50.07-37.59-21.37-5.18-43.28,1.45-56.43,10.6-10.74,7.46-19.98,20.88-24.09,36.04-1.53,6.03-1.71,7.16-2.17,13.23-.55,9.91,1.72,22.16,6.76,31.6,13.38,25.02,50.27,28.31,71.38,30,29.45,2.36,37.84-9.48,43.45-15.4,5.61-5.92,5.97-7.85,7.46-11.89ZM34.38,67.2c-3.38-.68-4.45-4.32-3.49-8.94.96-4.62,3.58-8.49,6.96-7.81,3.41.69,3.2,4.1,2.16,8.7-1.05,4.61-2.25,8.73-5.63,8.05ZM69.89,74.26c-10.85,6.11-16.92,14.57-23.05,13.18-3.71-.84-6.71-15.33-2.77-22,.56-.95.99-2.01,1.91-2.57,7.11-4.34,19.74.74,24.52,7.27.92,1.26.79,3.34-.61,4.13ZM86.28,68.98c1.43-5.05,3.98-8.91,8.28-7.73,4.3,1.18,4.79,6.16,3.37,11.21-1.43,5.05-5.32,8-9.61,6.76-3.8-1.1-3.47-5.19-2.04-10.24Z"/>
  <path class="cls-5" d="M150.99,125.25c15.59-3.56,25.95-22.3,24.91-31.72-.92-8.34-20.74-17.15-34.24-13.83-8.01,1.97-13.34,5.94-20.23,13.27-3.56,3.79-4.99,8.99-4.9,13.94.2,10.37,18,22.09,34.45,18.34Z"/>
  <path class="cls-7" d="M114.39,95.74c-1.27,5.45-8.23,8.52-15.54,6.87-7.32-1.65-12.22-7.41-10.95-12.86s8.23-8.52,15.54-6.87c7.31,1.65,12.22,7.41,10.95,12.86Z"/>
  <path class="cls-7" d="M28.56,77.18c-1.21,5.18-6.64,8.37-12.14,7.13-5.5-1.24-8.98-6.45-7.77-11.63,1.21-5.18,6.64-8.37,12.14-7.13,5.5,1.24,8.98,6.45,7.77,11.63Z"/>
  <path class="cls-1" d="M35.74,120.65c-.15-1.43-1.42-2.46-2.86-2.31-2.05.22-3.78,1.08-5.05,2.5-1.93-3-4.65-4.62-7.87-4.62h-.04c-1.43,0-2.59,1.17-2.59,2.61,0,1.43,1.17,2.59,2.6,2.59,0,0,.01,0,.02,0,1.36,0,2.39.74,3.18,1.78-2.01-.45-4.12-.12-6.05.97-1.09.62-1.48,2.01-.86,3.1.62,1.1,2.01,1.48,3.1.86,1.14-.64,2.26-.76,3.34-.35,1.29.5,2.38,1.71,2.87,3.16.29.87,1.05,1.42,1.91,1.52.22.06.44.1.67.1.1,0,.2,0,.3-.02,1.39-.16,2.41-1.4,2.29-2.79,0-.03-.02-.21-.05-.5-.09-1.13-.06-3.54.95-4.83.27-.34.75-.81,1.84-.93,1.43-.15,2.46-1.43,2.31-2.86Z"/>
  <path class="cls-4" d="M34.38,67.2c-3.38-.68-4.45-4.32-3.49-8.94.96-4.62,3.58-8.49,6.96-7.81,3.41.69,3.2,4.1,2.16,8.7-1.05,4.61-2.25,8.73-5.63,8.05Z"/>
  <path class="cls-4" d="M86.28,68.98c1.43-5.05,3.98-8.91,8.28-7.73,4.3,1.18,4.79,6.16,3.37,11.21-1.43,5.05-5.32,8-9.61,6.76-3.8-1.1-3.47-5.19-2.04-10.24Z"/>
  <path class="cls-5" d="M93.39,20.93c14.23-13.85,43.35-21.76,59.69-7.8,4.07,3.46,7.91,7.87,8.15,13.4.52,5.49-3.74,12.98-10,10.94-1.91-.64-2.74-2.34-2.68-4.4.09-2.12,1.07-4.98,3.32-5.64,0,0-.02-.86-.02-.86-1.6-.18-3.09.79-4.14,1.9-2.85,2.98-3.76,8.13-.89,11.54,3,3.46,8.21,4.39,12.41,2.8,6.58-2.51,10.38-9.52,10.56-16.32.19-6.3-2.76-12.4-7.42-16.52-16.47-14.52-40-11.86-57.39-.59-4.63,3.01-8.93,6.6-12.24,10.99l.65.56h0Z"/>
</svg>