<?xml version="1.0" encoding="UTF-8"?>
<svg id="_レイヤー_1" data-name="レイヤー 1" xmlns="http://www.w3.org/2000/svg" viewBox="0 0 207.47 185.86">
  <defs>
    <style>
      .cls-1 {
        opacity: .61;
      }

      .cls-2 {
        fill: #5a207c;
      }

      .cls-2, .cls-3, .cls-4, .cls-5, .cls-6, .cls-7 {
        stroke-width: 0px;
      }

      .cls-3 {
        fill: #fff9bb;
      }

      .cls-4 {
        fill: #eecf4b;
      }

      .cls-5 {
        fill: #e8505b;
      }

      .cls-6 {
        fill: #fcd141;
      }

      .cls-7 {
        fill: #f5ab2d;
      }
    </style>
  </defs>
  <path class="cls-7" d="M35.12,123.54c-.06,0-.12,0-.18,0-6.44,0-11.91,3.48-15.72,6.88-.3-5.66-1.7-12.35-6.39-14.75-1.49-.76-3.31-.17-4.07,1.31-.76,1.49-.17,3.31,1.32,4.07,1.09.56,1.85,2.19,2.36,4.34-2.34-2.31-5.28-3.99-8.9-4.47-1.64-.22-3.18.94-3.39,2.6-.22,1.66.95,3.18,2.6,3.4,7.44.98,9.86,10.38,10.27,12.25,0,0,0,.01,0,.02.03.12.07.23.11.34.12.35.3.67.54.94.01.01.02.03.03.04.09.11.2.21.31.3.02.01.03.03.05.05.12.1.25.18.38.26.01,0,.02.01.03.02.45.26.97.41,1.51.41.21,0,.43-.02.65-.07.02,0,.04-.01.06-.02.03,0,.06-.02.09-.03.19-.05.37-.12.55-.21.05-.03.1-.06.16-.09.15-.08.29-.18.41-.28.05-.04.1-.09.15-.13.13-.12.25-.26.35-.4.02-.03.06-.06.08-.09.07-.11,7.37-10.64,16.47-10.64.04,0,.08,0,.12,0,1.63-.02,3.04-1.32,3.06-2.99.02-1.67-1.32-3.04-2.99-3.06Z"/>
  <path class="cls-6" d="M122.89,151.18c17.93,5.85,23.86,7.86,38.41,3.25,14.58-4.63,29.98-16.13,29.41-13.21-2.02,10.32-7.44,21.28-21.66,25.22-12.87,3.56-23.59-.02-33.89-2.79-10.3-2.77-12.26-12.46-12.26-12.46Z"/>
  <path class="cls-7" d="M115.95,144.65c3.44,3.66,5.95,8.33,15.81,14.65,9.86,6.33,28.2,11.68,36.44,10.28,8.24-1.4-10.75,10.85-21.09,9.77-10.34-1.08-16.63-8.87-25.56-17.86-8.93-8.99-9.6-15.61-9.69-17.07-.08-1.45,4.08.23,4.08.23Z"/>
  <path class="cls-7" d="M116.15,173.52c.12-.13.23-.27.32-.43.01-.02.02-.04.04-.06.09-.15.16-.3.22-.47.03-.07.04-.15.06-.22.03-.09.06-.17.07-.26,0-.02,0-.04,0-.06.01-.08.02-.16.03-.24.01-.11.02-.22.02-.33,0-.08,0-.15-.01-.22,0-.11-.02-.22-.04-.33-.01-.08-.03-.15-.05-.22-.03-.1-.06-.2-.1-.3-.03-.07-.06-.15-.09-.22-.05-.1-.11-.19-.17-.29-.04-.06-.08-.13-.12-.18-.09-.13-.2-.24-.31-.35-.02-.02-.03-.04-.05-.06,0,0,0,0,0,0-.14-.13-.29-.24-.45-.34-.06-.04-.13-.06-.19-.1-.08-.04-.16-.09-.25-.13-3.61-1.49-12.38-13.65-12.79-19.97-.1-1.67-1.52-2.92-3.21-2.82-1.67.11-2.93,1.54-2.82,3.21.37,5.8,5.42,14.56,10.41,20.16-5.52,1.4-8.12,4.38-9.35,6.98-.71,1.51-.06,3.31,1.45,4.02.41.2.85.29,1.28.29,1.13,0,2.22-.64,2.74-1.74,1.03-2.2,3.45-3.33,6.13-3.87-.57,3.06.1,6.42,2.08,9.5.58.9,1.55,1.39,2.55,1.39.56,0,1.12-.15,1.63-.48,1.41-.9,1.82-2.77.91-4.18-.67-1.05-2.66-4.72.06-7.66.01-.01.02-.02.03-.04Z"/>
  <path class="cls-7" d="M45.63,63.09c-14.35,1.32-30.79-17.55-35.82-16.44-10.92,2.42-11.69,27.54-7.35,37.1,3.08,6.79,5.66,13.24,14.95,18.86,9.29,5.63,28.21-39.52,28.21-39.52Z"/>
  <path class="cls-6" d="M115.83,23.59c28.35,9.53,47.51,25.14,54.33,48.67,5.85,20.19,2.59,39.14-5.82,55.48-7.82,15.2-21.77,38.62-68.09,38.13-26.28-.28-65.65-19.75-77.78-46.41C2.73,84.85,24.03,44.69,49.27,30.21c16.19-9.29,42.28-14.78,66.56-6.62Z"/>
  <path class="cls-7" d="M146.4,99.85c15.4-9.88,35.71-4.13,45.88,5.08,2.43,2.2,7.78,5.53,6.45,10.04-1.49,5.06-8.8,17.21-22.88,24.62-5.79,3.04-14.11,7.66-25.62,7.41-5.95-.13-12.5-.27-16.47-4.31-8.32-8.47-3.62-32.41,12.63-42.84Z"/>
  <path class="cls-2" d="M46.33,65.31c-1.58,5.27-3.49,9.9-7.34,8.77-3.85-1.13-4.73-5.46-3.15-10.73,1.58-5.27,5.01-9.49,8.86-8.36,3.85,1.13,3.2,5.04,1.63,10.31Z"/>
  <path class="cls-2" d="M110.86,87.39c-2.16,5.72-6.98,8.75-11.83,6.88-4.3-1.66-3.5-6.38-1.34-12.09,2.16-5.72,5.52-9.93,10.39-8.13,4.87,1.8,4.94,7.63,2.78,13.35Z"/>
  <path class="cls-3" d="M52.99,69.92c9.11-3.37,22.4,5.27,26.4,13.8.77,1.65.15,4-1.62,4.58-13.78,4.55-22.61,12.86-29.3,9.9-4.06-1.79-4.24-19.03,1.77-25.77.86-.97,1.58-2.08,2.76-2.51Z"/>
  <path class="cls-7" d="M106.13,33.23c3.6-15.03,16.26-26.56,30.78-31.13,23.51-6.56,51.47,2.52,65.36,23.07,7.09,10.11,7.78,25.65-3.18,33.38-5.76,4.48-15.81,4.71-19.3-2.76-2.27-3.95-1.75-9.56,1.69-12.61,1.54-1.45,3.93-2.44,5.99-1.62,0,0-.21.92-.21.92-3.25.06-5.06,3.94-4.69,6.72.21,2,1.54,4.01,3.15,5.07,5.3,2.57,11.34-4.03,11.97-9.23.97-5.39-1.26-11.46-4.77-17.14-11.1-17.54-34.89-25.4-54.92-21.59-13.97,3.14-26.35,13.38-30.97,27.19,0,0-.9-.27-.9-.27h0Z"/>
  <g class="cls-1">
    <ellipse class="cls-5" cx="111.87" cy="110.3" rx="11.09" ry="14.87" transform="translate(-26.61 184.48) rotate(-72.77)"/>
  </g>
  <g class="cls-1">
    <ellipse class="cls-5" cx="22.32" cy="78.85" rx="10.12" ry="10.73" transform="translate(-59.62 80.39) rotate(-75.27)"/>
  </g>
  <path class="cls-4" d="M56.7,74.26c-.51.93-.79,1.68-1.38,1.35-.6-.33-.66-1.35-.15-2.28.51-.93,1.41-1.42,2.01-1.09.6.33.04,1.09-.48,2.02Z"/>
  <path class="cls-4" d="M67.75,79.26c-.58.89-1.72,1.18-2.56.64-.84-.54-.35-1,.23-1.89.58-.89,1.03-1.88,1.86-1.34.84.54,1.04,1.7.47,2.6Z"/>
</svg>