<?xml version="1.0" encoding="UTF-8"?>
<svg id="_レイヤー_1" data-name="レイヤー 1" xmlns="http://www.w3.org/2000/svg" viewBox="0 0 320 72">
  <defs>
    <style>
      .cls-1 {
        fill: #231815;
      }

      .cls-2 {
        fill: #fff;
      }
    </style>
  </defs>
  <path class="cls-1" d="M271.56,50.96v-23.58h-1.38c-2.43,0-4.41-1.59-4.41-4.48s1.98-4.45,4.41-4.45h1.38v-2.22c0-7.69,3.85-11.01,11.61-11.08,6.64,0,9.21,2.05,9.21,4.84,0,1.62-.78,2.58-2.33,3-.57.18-1.24.28-2.01.32-3.14.18-4.31,1.27-4.31,3.53v1.62h3.74c2.47,0,4.41,1.59,4.41,4.45s-1.94,4.48-4.41,4.48h-3.39v23.58c0,4.38-2.58,6.46-6.25,6.46s-6.28-2.08-6.28-6.46Z"/>
  <g>
    <path class="cls-2" d="M6,27.41h-1.38c-2.79,0-4.62-1.84-4.62-4.62s1.84-4.62,4.62-4.62h1.38v-3.07c0-4.06,2.29-6.49,6.28-6.49s6.25,2.44,6.25,6.49v3.07h3.04c2.79,0,4.62,1.84,4.62,4.62s-1.84,4.62-4.62,4.62h-3.04v16.13c0,2.4.81,3.35,2.58,3.53l.78.11c2.79.32,4.41,1.55,4.41,4.45,0,3.64-3.95,5.47-8.79,5.47h-.32c-7.41,0-11.19-3.67-11.19-10.8v-18.88Z"/>
    <path class="cls-2" d="M31.03,50.92v-27.32c0-4.02,2.47-6.25,6.11-6.25,3.49,0,5.89,2.22,5.89,6.28v1.91h.25c.95-5.19,3.78-7.94,7.62-7.94,1.41,0,2.54.32,3.35.99,1.24.92,1.87,2.51,1.87,4.77,0,1.98-.6,3.46-1.76,4.48-1.16,1.06-2.93,1.59-5.26,1.69-4.31.11-5.54,2.01-5.54,6.39v15c0,4.24-2.44,6.49-6.25,6.49-3.85,0-6.28-2.26-6.28-6.49Z"/>
    <path class="cls-2" d="M59.6,65c0-2.47,1.73-3.99,4.48-3.99.6,0,1.06.03,1.66.03,1.52,0,3.32-.42,4.45-2.12l.32-.74-11.72-31.24c-.49-1.27-.78-2.72-.78-3.78,0-3.35,2.82-5.82,6.53-5.82,3.35,0,5.05,1.41,6.07,5.15l7.2,24.71h.21l7.2-24.85c.99-3.46,2.86-5.01,6.07-5.01,3.6,0,6.11,2.33,6.11,5.58,0,1.06-.32,2.61-.74,3.81l-10.59,29.51c-3.71,10.48-8.82,14.51-18.28,14.51-5.29,0-8.19-2.05-8.19-5.75Z"/>
    <path class="cls-2" d="M104.43,51.42c0-3.53,3-6.32,6.71-6.32,3.67,0,6.67,2.79,6.67,6.32s-3,6.35-6.67,6.35-6.71-2.79-6.71-6.35ZM105.63,34.68l-.67-21.95c0-.56-.04-1.2-.04-1.66,0-3.92,2.33-6.21,6.25-6.21s6.18,2.29,6.18,6.21c0,.46-.04,1.09-.07,1.66l-.64,21.95c-.11,3.64-1.94,5.75-5.51,5.75s-5.4-2.12-5.51-5.75Z"/>
    <path class="cls-2" d="M142.04,48.06c-.46-1.06-.67-2.15-.67-3.21,0-3.25,2.33-5.44,5.61-5.44,2.51,0,4.2.88,5.86,3.42,1.73,3.18,5.15,4.52,9.25,4.52,5.05,0,8.33-2.26,8.33-5.36,0-2.82-2.15-4.27-8.19-5.44l-5.26-.99c-10.13-1.91-15.42-6.88-15.42-14.65,0-9.81,8.51-16.13,20.22-16.13,9.74,0,16.87,3.74,19.34,10.2.35.88.53,1.73.53,2.79,0,3-2.19,5.01-5.44,5.05-2.82,0-4.59-1.02-6.11-3.49-1.66-3.18-4.48-4.41-8.22-4.41-4.69,0-7.45,2.12-7.45,5.12,0,2.68,2.29,4.17,7.84,5.22l5.22.99c10.87,2.08,15.81,6.49,15.81,14.51,0,10.24-8.01,16.73-21.43,16.73-11.05,0-17.72-4.17-19.84-9.42Z"/>
    <path class="cls-2" d="M194.85,50.74l-6.92-24.04c-.49-1.73-.74-2.79-.74-4.02,0-3.11,2.54-5.33,6.04-5.33,3.11,0,5.22,1.98,5.89,5.37l4.76,22.59h.25l4.87-22.2c.74-3.74,3.21-5.75,6.99-5.75s6.21,2.01,6.99,5.79l4.91,22.17h.25l4.76-22.7c.64-3.28,2.72-5.26,5.82-5.26,3.42,0,5.86,2.19,5.86,5.26,0,1.2-.25,2.26-.71,3.95l-6.92,24.11c-1.34,4.66-3.67,6.74-8.15,6.74s-7.13-2.05-8.19-6.78l-4.77-19.91h-.25l-4.73,20.01c-1.02,4.66-3.46,6.67-8.05,6.67s-6.67-2.08-7.98-6.67Z"/>
    <path class="cls-2" d="M249.21,8.14c0-3.49,2.79-6.14,6.42-6.14s6.39,2.65,6.39,6.14-2.75,6.11-6.39,6.11-6.42-2.65-6.42-6.11ZM249.39,50.92v-27.07c0-4.09,2.29-6.49,6.25-6.49s6.25,2.4,6.25,6.49v27.07c0,4.13-2.33,6.49-6.25,6.49s-6.25-2.37-6.25-6.49Z"/>
    <path class="cls-2" d="M271.56,50.96v-23.58h-1.38c-2.43,0-4.41-1.59-4.41-4.48s1.98-4.45,4.41-4.45h1.38v-2.22c0-7.69,3.85-11.01,11.61-11.08,6.64,0,9.21,2.05,9.21,4.84,0,1.62-.78,2.58-2.33,3-.57.18-1.24.28-2.01.32-3.14.18-4.31,1.27-4.31,3.53v1.62h3.74c2.47,0,4.41,1.59,4.41,4.45s-1.94,4.48-4.41,4.48h-3.39v23.58c0,4.38-2.58,6.46-6.25,6.46s-6.28-2.08-6.28-6.46Z"/>
    <path class="cls-2" d="M299.7,27.41h-1.38c-2.79,0-4.62-1.84-4.62-4.62s1.84-4.62,4.62-4.62h1.38v-3.07c0-4.06,2.29-6.49,6.28-6.49s6.25,2.44,6.25,6.49v3.07h3.04c2.79,0,4.62,1.84,4.62,4.62s-1.84,4.62-4.62,4.62h-3.04s0,16.13,0,16.13c0,2.4.81,3.35,2.58,3.53l.78.11c2.79.32,4.41,1.55,4.41,4.45,0,3.64-3.95,5.47-8.79,5.47h-.32c-7.41,0-11.19-3.67-11.19-10.8v-18.88Z"/>
  </g>
</svg>