<?xml version="1.0" encoding="UTF-8"?>
<svg id="_レイヤー_1" data-name="レイヤー 1" xmlns="http://www.w3.org/2000/svg" viewBox="0 0 340 72.82">
  <defs>
    <style>
      .cls-1 {
        stroke-width: 0px;
      }
    </style>
  </defs>
  <path class="cls-1" d="M18.6,7.52v9.1h7.43v9.69h-7.43v17.56c0,2.88,1.55,4.33,4.77,4.33,1.07,0,1.89-.07,2.66-.19v9.32c-1.29.3-3.22.52-5.77.52-10.58,0-14.75-3.29-14.75-11.35v-20.19H0v-9.69h5.51V7.52h13.09Z"/>
  <path class="cls-1" d="M35.78,16.62h12.72v7.73h.26c1.48-5.47,4.84-8.28,9.72-8.28,1.29,0,2.48.22,3.37.52v11.24c-1.11-.48-2.66-.74-4.25-.74-5.62,0-8.73,3.18-8.73,8.95v21.74h-13.09V16.62Z"/>
  <path class="cls-1" d="M72.05,72.75v-9.91c.19.04,2.11.04,2.29.04,4.25,0,6.73-1.18,7.17-3.62l.19-1.15-14.05-41.49h14.46l7.58,31.25h.26l7.58-31.25h13.83l-13.24,41.08c-3.51,10.98-9.5,15.12-21.3,15.12-.19,0-4.59-.04-4.77-.07Z"/>
  <path class="cls-1" d="M117.52,51.97c0-3.9,3.14-6.99,7.03-6.99s6.99,3.08,6.99,6.99-3.14,7.03-6.99,7.03-7.03-3.08-7.03-7.03ZM131.28.64l-1.15,38.95h-11.17l-1.15-38.95h13.46Z"/>
  <path class="cls-1" d="M165.87,41.28c.48,3.83,4.59,6.39,9.61,6.39,5.29,0,8.73-2.48,8.73-5.84,0-3.1-2.26-4.61-8.32-5.92l-6.99-1.43c-9.84-1.97-14.9-7.55-14.9-16.02,0-10.84,8.87-17.8,21.22-17.8,13.35,0,21.22,6.77,21.37,17.26h-12.5c-.26-4.06-3.85-6.5-8.73-6.5s-7.88,2.24-7.88,5.65c0,3.02,2.37,4.68,7.95,5.88l6.91,1.35c10.54,2.13,15.27,7.12,15.27,15.94,0,11.11-8.76,18.19-22.52,18.19s-22-6.31-22.15-17.14h12.91Z"/>
  <path class="cls-1" d="M252.69,57.5h-14.13l-6.62-27.92h-.26l-6.58,27.92h-13.9l-10.69-41.15h13.2l5.36,29.25h.26l6.43-29.25h12.5l6.51,29.25h.26l5.36-29.25h12.94l-10.65,41.15Z"/>
  <path class="cls-1" d="M267.06,6.47c0-3.7,3.03-6.47,6.73-6.47s6.77,2.77,6.77,6.47-3.03,6.47-6.77,6.47-6.73-2.74-6.73-6.47ZM267.24,16.34h13.13v41.15h-13.13V16.34Z"/>
  <path class="cls-1" d="M290.31,26.03h-5.51v-9.69h5.51v-3.59c0-8.06,3.99-11.28,14.49-11.28,2.14,0,4.1.19,5.77.41v8.65c-.78-.15-1.66-.26-3-.26-3.18,0-4.51,1.07-4.51,3.48v2.59h7.54v9.69h-7.21v31.47h-13.09v-31.47Z"/>
  <path class="cls-1" d="M332.57,7.25v9.1h7.43v9.69h-7.43v17.56c0,2.88,1.55,4.33,4.77,4.33,1.07,0,1.89-.07,2.66-.19v9.32c-1.29.3-3.22.52-5.77.52-10.58,0-14.75-3.29-14.75-11.35v-20.19h-5.51v-9.69h5.51V7.25h13.09Z"/>
</svg>